# xmcd CD database file
#
# Track frame offsets:
#	150
#	15360
#	29082
#	42102
#	56997
#	66933
#	81631
#	92161
#	105447
#	118021
#	131835
#	154486
#	165853
#	181167
#	194130
#	207756
#	221040
#	234557
#	246980
#	257569
#
# Disc length: 3598 seconds
#
# Revision: 1
# Processed by: cddbd v1.5.2PL0 Copyright (c) Steve Scherf et al.
# Submitted via: CDex 1.51
#
DISCID=260e0c14
DTITLE=Various Artist - Jazz and Blues  {CD 3-3]
DYEAR=2011
DGENRE=Jazz
TTITLE0=Mack The Knife - LOUIS ARMSTRONG  . . . . . . .  { Jazz }
TTITLE1=Route 66 - NAT KING COLE
TTITLE2=Let The Good Times roll - RAY CHARLES
TTITLE3=Honey Hush - FATS WALLER
TTITLE4=Chicago - FRANK SINATRA
TTITLE5=Minnie The Moocher - CAB CALLOWAY
TTITLE6=My Funny Valentine - CHR BAKER
TTITLE7=Beyond The Sea - BOBBY DARIN
TTITLE8=Hey There - SAMMY DAVIS JR
TTITLE9=C'est Si Bon - LOUIS ARMSTRONG
TTITLE10=The Thrill Is Gone - B.B. KING  . . . . . . .  { Blues }
TTITLE11=Boom Boom - JOHN LEE HOOKER
TTITLE12=Bad Luck Shadow - JOHNNY OTIS
TTITLE13=Rambling on my mind - ROBERT JOHNSON
TTITLE14=Jelly Roll Blues - JELLY ROLL MORTON
TTITLE15=Jailhousie Blues - SLEEPY JOHN ESTES
TTITLE16=Better Cut That Out - SONNY BOY WILLIAMSON
TTITLE17=Big Fat Mama - ROY MILTON
TTITLE18=Ain't Got No Home - CLARENCE FROGMAN HENRY
TTITLE19=Bear Cat - RUFUS THOMAS
EXTD=YEAR: 2011
EXTT0=
EXTT1=
EXTT2=
EXTT3=
EXTT4=
EXTT5=
EXTT6=
EXTT7=
EXTT8=
EXTT9=
EXTT10=
EXTT11=
EXTT12=
EXTT13=
EXTT14=
EXTT15=
EXTT16=
EXTT17=
EXTT18=
EXTT19=
PLAYORDER=
